<svg xmlns="http://www.w3.org/2000/svg" viewBox="0 0 640 420" role="img" aria-labelledby="title desc">
  <title id="title">Billiards illustration</title>
  <desc id="desc">A retro billiards table with balls and cue sticks.</desc>
  <rect width="640" height="420" fill="#FAF6EE"/>
  <rect x="58" y="58" width="524" height="304" rx="14" fill="#244244" stroke="#2D2722" stroke-width="18"/>
  <rect x="102" y="102" width="436" height="216" rx="8" fill="#2f6f66" stroke="#F5EFE4" stroke-width="4"/>
  <g fill="#2D2722">
    <circle cx="112" cy="112" r="18"/>
    <circle cx="528" cy="112" r="18"/>
    <circle cx="112" cy="308" r="18"/>
    <circle cx="528" cy="308" r="18"/>
    <circle cx="320" cy="104" r="15"/>
    <circle cx="320" cy="316" r="15"/>
  </g>
  <g stroke="#C59B27" stroke-width="10" stroke-linecap="round">
    <line x1="154" y1="336" x2="470" y2="92"/>
    <line x1="496" y1="342" x2="192" y2="90"/>
  </g>
  <g stroke="#2D2722" stroke-width="3">
    <circle cx="268" cy="214" r="24" fill="#FAF6EE"/>
    <circle cx="323" cy="194" r="24" fill="#B93A25"/>
    <circle cx="374" cy="226" r="24" fill="#C59B27"/>
    <circle cx="425" cy="178" r="24" fill="#244244"/>
  </g>
  <g fill="#2D2722" font-family="Georgia, serif" font-weight="900" text-anchor="middle">
    <text x="268" y="222" font-size="20">8</text>
    <text x="323" y="202" font-size="20" fill="#FAF6EE">3</text>
    <text x="374" y="234" font-size="20">1</text>
    <text x="425" y="186" font-size="20" fill="#FAF6EE">6</text>
  </g>
  <path d="M84 384H556" stroke="#2D2722" stroke-width="4" stroke-dasharray="12 9"/>
</svg>
